<svg xmlns="http://www.w3.org/2000/svg" viewBox="0 0 193.73 38.75"><defs><style>.cls-1{fill:#ca0015;}</style></defs><title>grupa-zywiec</title><g id="Warstwa_2" data-name="Warstwa 2"><g id="Warstwa_3" data-name="Warstwa 3"><path class="cls-1" d="M9.3,38.75H37.2V36.27H9.3ZM131.19,15.62c1.16,0,1.67-.53,1.67-1.67s-.53-1.67-1.69-1.67-1.64.53-1.64,1.64S130,15.62,131.19,15.62Zm-52.52,8a4.17,4.17,0,0,0-.55,1.27v-2.5h-3V33.52h3.09v-5a3.21,3.21,0,0,1,1.25-3A2.89,2.89,0,0,1,81.12,25a3.23,3.23,0,0,1,1.41.32v-3a4.84,4.84,0,0,0-1-.14A3.4,3.4,0,0,0,78.67,23.65Zm91.13-6.14c-1.16,0-1.64.53-1.64,1.64s.49,1.69,1.67,1.69,1.67-.53,1.67-1.67S171,17.51,169.8,17.51Zm-1.53,16h3.1V22.43h-3.1ZM161.77,30l-2.08-7.61h-2.85L154.74,30l-1.92-7.56h-3.26c.72,2.48,1.41,4.93,2.2,7.38.28.88.56,1.76.88,2.61.14.37.3.72.44,1.09h3.08l2.13-7.5,2.06,7.5h3.05c1.41-3.63,2.48-7.33,3.56-11.08h-3.24Zm31.89.39a3.3,3.3,0,0,1-2.06.69,3.06,3.06,0,0,1-3.12-3.21,3,3,0,0,1,3.07-3.19,3.44,3.44,0,0,1,2,.65l.07,0V22.82a6.55,6.55,0,0,0-2.89-.67,5.46,5.46,0,0,0-5.57,5.73A5.68,5.68,0,0,0,193.73,33V30.46Zm-14.83-8.28c-3.28,0-5.25,2.57-5.25,5.66a5.63,5.63,0,0,0,3.61,5.53,7.32,7.32,0,0,0,2.54.39,11.61,11.61,0,0,0,3.45-.51V31a8.74,8.74,0,0,1-2.77.46c-1.76,0-3.38-.58-3.65-2.57l6.75,0a7.31,7.31,0,0,0,.23-1.71A4.73,4.73,0,0,0,178.83,22.15Zm2.06,5.06h-4.16c0-1.29.63-2.82,2.13-2.82s2,1.25,2,2.48Zm-38,3.5-2.36-8.28h-3.45c1.32,3.77,2.5,7.27,4.14,10.9l-1.92,4.44h3.31c.65-1.53,1.37-3,2-4.51.9-2.1,1.78-4.21,2.55-6.36l1.57-4.47h-3.47ZM91,28.13c0,1.5,0,2.94-1.92,2.94-1.74,0-1.92-1.37-1.92-2.76V22.43H84.08v5.82a7.63,7.63,0,0,0,.44,3.15c.79,1.71,2.8,2.39,4.57,2.39A5.06,5.06,0,0,0,93.3,32a6.2,6.2,0,0,0,.81-3.64V22.43H91Zm44.37-6.22a9.91,9.91,0,0,0,1.46-4.75H126.08V20h6.7l-5.42,8.52a12,12,0,0,0-1.83,5h11.55V30.62H130ZM69.65,30.42a5.44,5.44,0,0,1-1.94.33c-4.07,0-5.27-3.18-5.27-5.33s1.09-5.64,5.23-5.64a7,7,0,0,1,4.78,1.48V18.09a9.59,9.59,0,0,0-4.76-1.18c-5.63,0-8.41,4.35-8.41,8.49a8.05,8.05,0,0,0,8.39,8.35,8.45,8.45,0,0,0,5.05-1.51h0V25.07H69.65ZM37.19,10.85a9.3,9.3,0,0,0-1.5.12,10.07,10.07,0,0,0-6.63-2.49H27.35a4.64,4.64,0,0,0-2.86-2.31V4.3H26.7V1.9H24.49V0H22V1.9H19.8V4.3H22V6.18a4.65,4.65,0,0,0-2.86,2.31H17.43A10.06,10.06,0,0,0,10.8,11a9.3,9.3,0,0,0-5,17.8s0,.07,0,.11a4.63,4.63,0,0,0,4.63,4.63H36a4.63,4.63,0,0,0,4.63-4.63s0-.07,0-.11a9.3,9.3,0,0,0-3.47-17.93ZM23.25,8.37A2.27,2.27,0,1,1,21,10.64,2.27,2.27,0,0,1,23.25,8.37ZM6.5,26.49A6.94,6.94,0,0,1,8.87,13.22a10.1,10.1,0,0,0,.31,11.21A4.65,4.65,0,0,0,6.5,26.49Zm4,4.66a2.27,2.27,0,1,1,2.27-2.27A2.27,2.27,0,0,1,10.46,31.15ZM18.11,31H15.3a1.73,1.73,0,0,0-.84.22,4.6,4.6,0,0,0,.6-2.78,10.16,10.16,0,0,0,2.37.28l.69,0A5.12,5.12,0,0,0,18.83,31l.14.23A1.73,1.73,0,0,0,18.11,31Zm.46-4.73a7.75,7.75,0,1,1-1.14-15.42h1.19A4.63,4.63,0,0,0,22,15.09v8.32A5.14,5.14,0,0,0,18.57,26.26Zm4.68,4.89A2.77,2.77,0,1,1,26,28.38,2.77,2.77,0,0,1,23.25,31.15Zm1.28-7.74V15.09a4.63,4.63,0,0,0,3.35-4.24h1.18a7.75,7.75,0,1,1-1.13,15.42A5.15,5.15,0,0,0,24.53,23.41ZM31.19,31H28.38a1.73,1.73,0,0,0-.86.23,5.11,5.11,0,0,0,.85-2.54l.69,0a10.18,10.18,0,0,0,2.37-.28c0,.15,0,.3,0,.46A4.61,4.61,0,0,0,31.91,31h0l.12.22A1.73,1.73,0,0,0,31.19,31Zm4.84.15a2.27,2.27,0,1,1,2.27-2.27A2.26,2.26,0,0,1,36,31.15Zm4-4.66a4.65,4.65,0,0,0-2.68-2.06,10.1,10.1,0,0,0,.31-11.21A6.94,6.94,0,0,1,40,26.49Zm74.34-4.34a10.28,10.28,0,0,0-4.62,1v2.2a8.67,8.67,0,0,1,4-1c1.16,0,1.9.44,1.9,1.64v.42h-.39a8.17,8.17,0,0,0-4.93,1.27,3.32,3.32,0,0,0-1.43,2.73c0,2.89,2.89,3.31,5.13,3.31a18.89,18.89,0,0,0,4.55-.49V26.34a5.29,5.29,0,0,0-.32-2.17C117.57,22.64,115.88,22.15,114.33,22.15Zm1.29,9.32a8,8,0,0,1-1.48.14c-1,0-2.29-.21-2.29-1.48,0-1.69,2.31-1.94,3.58-1.94h.19ZM103.11,22.2a3.41,3.41,0,0,0-3.31,2.41V22.43H96.86V37.7h3.07V32.33a3.22,3.22,0,0,0,2.82,1.34c3.19,0,4.76-2.9,4.76-5.74C107.52,25.31,106.11,22.2,103.11,22.2Zm-1,9c-1.62,0-2.22-1.81-2.22-3.15s.6-3.17,2.24-3.17,2.31,1.69,2.31,3.08S103.8,31.21,102.13,31.21Z"/></g></g></svg>