<svg xmlns="http://www.w3.org/2000/svg" viewBox="0 0 71.25 71.25"><defs><style>.cls-1{fill:#ca0015;}.cls-2,.cls-4,.cls-5{fill:none;stroke:#fff;stroke-linecap:round;stroke-linejoin:round;}.cls-2{stroke-width:2px;}.cls-3{fill:#fff;}.cls-4{stroke-width:3px;}</style></defs><title>ikona2</title><g id="Warstwa_2" data-name="Warstwa 2"><g id="Warstwa_1-2" data-name="Warstwa 1"><circle class="cls-1" cx="35.62" cy="35.62" r="35.62"/><path class="cls-2" d="M46.14,27V45.81a3,3,0,0,1-3,3H14a3,3,0,0,1-3-3V27"/><path class="cls-3" d="M32.42,47.89H24.68v-14h7.74ZM33.6,32.72H23.51V49.07H33.6V32.72Z"/><polyline class="cls-4" points="8.57 23.07 28.7 18.2 48.82 23.07"/><line class="cls-2" x1="43.13" y1="48.81" x2="64.97" y2="48.81"/><line class="cls-5" x1="51.59" y1="44.98" x2="51.59" y2="48.81"/><line class="cls-5" x1="54.72" y1="44.98" x2="54.72" y2="48.81"/><line class="cls-5" x1="57.84" y1="44.98" x2="57.84" y2="48.81"/><line class="cls-5" x1="60.97" y1="44.98" x2="60.97" y2="48.81"/><line class="cls-5" x1="64.09" y1="44.98" x2="64.09" y2="48.81"/></g></g></svg>