<svg xmlns="http://www.w3.org/2000/svg" viewBox="0 0 71.25 71.25"><defs><style>.cls-1,.cls-4{fill:#ca0015;}.cls-2,.cls-3{fill:none;}.cls-2,.cls-3,.cls-4{stroke:#fff;stroke-linecap:round;stroke-linejoin:round;}.cls-2{stroke-width:3px;}.cls-3,.cls-4{stroke-width:1.5px;}</style></defs><title>ikona3</title><g id="Warstwa_2" data-name="Warstwa 2"><g id="Warstwa_1-2" data-name="Warstwa 1"><circle class="cls-1" cx="35.62" cy="35.62" r="35.62"/><rect class="cls-2" x="14.29" y="22.26" width="43.79" height="32.34"/><line class="cls-3" x1="21.37" y1="48.18" x2="33.53" y2="27.18"/><line class="cls-3" x1="26.87" y1="48.18" x2="39.03" y2="27.18"/><line class="cls-3" x1="46.65" y1="48.18" x2="52.39" y2="38.26"/><path class="cls-4" d="M53.63,31.72a6.81,6.81,0,0,1-6-6l-.29-.29-.29.29a6.82,6.82,0,0,1-6,6l-.29.29.29.29a6.82,6.82,0,0,1,6,6l.29.29.29-.29a6.81,6.81,0,0,1,6-6l.29-.29Z"/><path class="cls-3" d="M54.69,15.05a4,4,0,0,1-2.53-1.22,4,4,0,0,1-1.22-2.52l-.18-.18-.18.18a4,4,0,0,1-1.22,2.52,4,4,0,0,1-2.52,1.22l-.18.18.18.18a4.27,4.27,0,0,1,3.75,3.75l.18.18.18-.18a4.27,4.27,0,0,1,3.75-3.75l.18-.18Z"/><path class="cls-3" d="M42,11.62a4,4,0,0,1-2.53-1.22,4,4,0,0,1-1.22-2.52l-.18-.18-.18.18a4,4,0,0,1-1.22,2.52,4,4,0,0,1-2.53,1.22l-.18.18.18.18a4.27,4.27,0,0,1,3.75,3.75l.18.18.18-.18A4.27,4.27,0,0,1,42,12l.18-.18Z"/></g></g></svg>