<svg xmlns="http://www.w3.org/2000/svg" viewBox="0 0 71.25 71.25"><defs><style>.cls-1{fill:#ca0015;}.cls-2,.cls-3{fill:none;stroke:#fff;stroke-linecap:round;stroke-linejoin:round;}.cls-2{stroke-width:2px;}.cls-3{stroke-width:1.5px;}</style></defs><title>ikona4</title><g id="Warstwa_2" data-name="Warstwa 2"><g id="Warstwa_1-2" data-name="Warstwa 1"><circle class="cls-1" cx="35.62" cy="35.62" r="35.62"/><path class="cls-2" d="M29.25,29.72s-6.65-4.25-11.84,1.42-3.52,13.11,1.36,19.23c5.78,7.25,9.56,3.77,10.48,3.95"/><path class="cls-2" d="M20.71,17.57s10.17-1.95,8.54,12.15c0,0,6.65-4.25,11.84,1.42s3.52,13.11-1.36,19.23c-5.78,7.25-9.56,3.77-10.48,3.95"/><path class="cls-2" d="M37.59,20.42c-2.25,2.25-6.39,1.74-6.39,1.74S30.7,18,33,15.77,39.34,14,39.34,14,39.84,18.17,37.59,20.42Z"/><path class="cls-3" d="M33,32a7.5,7.5,0,0,1,7.88,7.09"/><path class="cls-2" d="M48.21,31.12,48,27.69a3.56,3.56,0,0,1,3.56-3.56h0a3.56,3.56,0,0,1,3.56,3.56L53.65,52.22c0,2-.94,2.83-2.09,2.83h0c-1.24,0-2.09-.86-2.09-2.83L48.37,33.9"/><line class="cls-3" x1="51.56" y1="39.59" x2="54.41" y2="39.59"/><line class="cls-3" x1="50.97" y1="33.8" x2="48.27" y2="33.8"/><line class="cls-3" x1="51.56" y1="45.69" x2="49.08" y2="45.69"/><path class="cls-2" d="M47.6,16.48a9,9,0,0,1,4,7.65"/><path class="cls-2" d="M55.53,16.48a9,9,0,0,0-4,7.65"/><line class="cls-2" x1="51.56" y1="24.13" x2="51.56" y2="12.97"/></g></g></svg>