<svg xmlns="http://www.w3.org/2000/svg" viewBox="0 0 71.25 71.25"><defs><style>.cls-1{fill:#ca0015;}.cls-2,.cls-4,.cls-5{fill:none;stroke:#fff;stroke-linecap:round;stroke-linejoin:round;}.cls-2{stroke-width:2px;}.cls-3{fill:#fff;}.cls-4{stroke-width:3px;}</style></defs><title>ikona1</title><g id="Warstwa_2" data-name="Warstwa 2"><g id="Warstwa_1-2" data-name="Warstwa 1"><circle class="cls-1" cx="35.62" cy="35.62" r="35.62"/><path class="cls-2" d="M46.14,27V45.81a3,3,0,0,1-3,3H14a3,3,0,0,1-3-3V27"/><path class="cls-3" d="M32.42,47.89H24.68v-14h7.74ZM33.6,32.72H23.51V49.07H33.6V32.72Z"/><polyline class="cls-4" points="8.57 23.07 28.7 18.2 48.82 23.07"/><line class="cls-5" x1="50.47" y1="43.75" x2="51.8" y2="49.07"/><line class="cls-5" x1="53.97" y1="48.81" x2="55.07" y2="41.35"/><line class="cls-5" x1="56.47" y1="48.81" x2="57.47" y2="46.41"/><line class="cls-5" x1="60.47" y1="49.07" x2="60.64" y2="40.89"/><line class="cls-2" x1="43.13" y1="48.81" x2="64.97" y2="48.81"/><line class="cls-2" x1="23.51" y1="56.29" x2="25.09" y2="55.42"/><line class="cls-2" x1="29.59" y1="56.29" x2="31.18" y2="55.42"/><line class="cls-2" x1="33.6" y1="60.42" x2="34.47" y2="61.92"/><line class="cls-2" x1="43.97" y1="55.86" x2="44.34" y2="56.29"/><line class="cls-2" x1="52.47" y1="53.79" x2="52.47" y2="53.79"/><line class="cls-2" x1="13.84" y1="52.42" x2="13.84" y2="52.54"/><line class="cls-2" x1="41.84" y1="63.04" x2="48.22" y2="61.17"/></g></g></svg>