<svg xmlns="http://www.w3.org/2000/svg" viewBox="0 0 71.25 71.25"><defs><style>.cls-1{fill:#ca0015;}.cls-2{fill:#fff;}</style></defs><title>ikona5</title><g id="Warstwa_2" data-name="Warstwa 2"><g id="Warstwa_1-2" data-name="Warstwa 1"><circle class="cls-1" cx="35.62" cy="35.62" r="35.62"/><rect class="cls-2" x="21.66" y="50.16" width="27.93" height="2.48"/><path class="cls-2" d="M58.9,34a9.31,9.31,0,0,0-10.81-9.19,10.08,10.08,0,0,0-6.64-2.49H39.73A4.65,4.65,0,0,0,36.87,20V18.16h2.21v-2.4H36.87v-1.9H34.38v1.9H32.17v2.41h2.21V20a4.66,4.66,0,0,0-2.86,2.31H29.8a10.07,10.07,0,0,0-6.63,2.49,9.31,9.31,0,0,0-5,17.82s0,.07,0,.11a4.63,4.63,0,0,0,4.63,4.63h25.6a4.64,4.64,0,0,0,4.64-4.63s0-.07,0-.11A9.3,9.3,0,0,0,58.9,34ZM35.62,22.24a2.27,2.27,0,1,1-2.27,2.27A2.27,2.27,0,0,1,35.62,22.24ZM18.86,40.38a6.94,6.94,0,0,1,2.38-13.28,10.1,10.1,0,0,0,.31,11.22A4.65,4.65,0,0,0,18.86,40.38Zm4,4.66a2.27,2.27,0,1,1,2.27-2.27A2.27,2.27,0,0,1,22.82,45Zm7.66-.15H27.67a1.74,1.74,0,0,0-.84.22,4.61,4.61,0,0,0,.63-2.33,4.39,4.39,0,0,0,0-.46,10.16,10.16,0,0,0,2.37.28l.69,0a5.11,5.11,0,0,0,.71,2.31l.14.23A1.73,1.73,0,0,0,30.48,44.89Zm.46-4.74a7.67,7.67,0,0,1-1.14.08,7.76,7.76,0,0,1,0-15.52H31A4.64,4.64,0,0,0,34.34,29v8.33A5.15,5.15,0,0,0,30.94,40.15ZM35.62,45a2.77,2.77,0,1,1,2.77-2.77A2.77,2.77,0,0,1,35.62,45Zm1.28-7.75V29a4.63,4.63,0,0,0,3.35-4.25h1.19a7.76,7.76,0,0,1,0,15.52,7.85,7.85,0,0,1-1.14-.08A5.15,5.15,0,0,0,36.9,37.29Zm6.67,7.6H40.76a1.74,1.74,0,0,0-.86.23,5.12,5.12,0,0,0,.85-2.54l.69,0a10.16,10.16,0,0,0,2.37-.28c0,.15,0,.3,0,.46a4.62,4.62,0,0,0,.51,2.11h0l.12.22A1.72,1.72,0,0,0,43.58,44.89Zm4.85.15a2.27,2.27,0,1,1,2.27-2.27A2.27,2.27,0,0,1,48.42,45Zm4-4.66a4.65,4.65,0,0,0-2.68-2.06A10.12,10.12,0,0,0,50,27.09a6.94,6.94,0,0,1,2.37,13.28Z"/></g></g></svg>